<?xml version="1.0" standalone="no"?>
<!DOCTYPE svg PUBLIC "-//W3C//DTD SVG 20010904//EN"
 "http://www.w3.org/TR/2001/REC-SVG-20010904/DTD/svg10.dtd">
<svg version="1.0" xmlns="http://www.w3.org/2000/svg"
 width="40.000000pt" height="40.000000pt" viewBox="0 0 40.000000 40.000000"
 preserveAspectRatio="xMidYMid meet">
<metadata>
Created by potrace 1.16, written by Peter Selinger 2001-2019
</metadata>
<g transform="translate(0.000000,40.000000) scale(0.017544,-0.018100)"
fill="#000000" stroke="none">
<path d="M947 2186 c-347 -62 -634 -255 -793 -532 -90 -158 -131 -292 -142
-464 -16 -225 23 -406 126 -590 188 -338 483 -526 898 -571 179 -19 403 17
577 92 342 148 605 494 645 847 33 287 -15 500 -166 741 -42 65 -167 198 -243
256 -120 93 -302 174 -474 210 -107 23 -328 28 -428 11z m413 -46 c3 -3 32
-12 65 -20 33 -7 65 -16 70 -20 6 -3 30 -13 55 -20 25 -8 47 -17 50 -20 3 -3
39 -23 80 -44 81 -42 135 -81 218 -160 53 -50 137 -152 158 -191 6 -11 27 -49
46 -85 85 -155 124 -326 115 -505 -10 -181 -57 -333 -153 -495 -97 -164 -257
-307 -444 -396 -121 -58 -237 -97 -246 -83 -4 6 -11 6 -20 -1 -7 -7 -19 -10
-26 -7 -7 2 -26 0 -43 -5 -41 -12 -312 -10 -335 2 -10 5 -36 12 -57 14 -21 2
-45 6 -53 9 -8 2 -35 10 -60 17 -41 10 -196 82 -245 113 -37 23 -170 136 -205
174 -76 83 -171 239 -209 343 -71 196 -78 471 -16 655 25 74 92 215 103 215 5
0 19 -11 32 -25 14 -14 30 -23 39 -20 8 3 32 -6 53 -20 61 -40 84 -27 25 15
-26 19 -47 38 -47 43 0 5 14 25 30 44 24 27 32 31 36 18 3 -8 12 -15 19 -15
21 0 28 -19 15 -35 -19 -22 -30 -18 -30 11 0 29 -23 29 -28 0 -8 -37 56 -65
75 -33 4 8 17 17 28 21 18 6 16 11 -23 47 -35 34 -40 44 -32 60 14 25 40 25
40 0 0 -11 12 -29 26 -40 l26 -21 29 21 c16 11 29 25 29 30 0 5 7 9 15 9 21 0
19 7 -15 50 -16 21 -30 42 -30 47 0 13 38 43 55 43 19 0 19 -9 -1 -31 -14 -16
-14 -19 11 -35 25 -16 28 -16 56 0 16 9 34 14 39 11 26 -16 28 9 5 53 -29 54
-30 62 -11 62 8 0 26 -20 40 -45 26 -44 46 -58 46 -32 0 6 -9 27 -20 45 -11
18 -20 42 -20 53 0 16 -4 19 -22 13 -76 -23 -228 -130 -319 -227 -30 -31 -42
-37 -62 -32 -14 4 -28 2 -31 -4 -10 -15 -26 -14 -26 3 0 22 156 181 230 236
38 27 72 50 75 50 3 0 22 11 43 23 20 13 69 36 107 51 39 14 84 34 102 42 17
9 37 14 45 11 7 -2 22 0 32 6 41 21 451 28 466 7z"/>
<path d="M1320 2121 c0 -4 9 -20 21 -35 18 -23 19 -27 5 -32 -9 -3 -33 -3 -54
1 -84 15 -182 20 -256 13 -61 -6 -83 -5 -95 6 -9 7 -33 19 -53 25 -32 11 -41
10 -63 -6 -21 -15 -25 -24 -21 -52 3 -19 12 -39 21 -43 8 -5 20 -29 26 -54 6
-24 16 -47 21 -50 20 -12 25 19 10 57 -19 50 -11 69 30 68 30 0 31 -1 11 -9
-42 -17 -24 -72 24 -76 15 -1 35 -5 44 -9 24 -9 29 5 18 54 -6 28 -6 47 0 55
13 15 167 21 176 7 5 -9 -66 -18 -99 -12 -15 3 -56 -29 -56 -43 0 -8 12 -21
26 -31 24 -16 27 -16 45 1 14 12 22 15 27 7 6 -9 76 -43 89 -43 2 0 3 12 1 28
-3 24 -6 27 -36 24 -28 -3 -33 0 -30 15 2 12 12 18 32 18 15 1 33 8 40 16 8
13 24 15 69 11 37 -3 56 -9 54 -16 -2 -6 -15 -10 -30 -8 -34 4 -67 -14 -67
-36 0 -20 35 -62 50 -62 14 0 12 12 -5 37 -14 20 -14 23 5 33 29 16 40 4 40
-43 0 -47 12 -41 30 18 7 22 16 45 21 50 10 14 -12 78 -36 105 -19 21 -35 26
-35 11z"/>
<path d="M1438 2009 c-26 -14 -22 -44 7 -63 26 -17 34 -56 12 -56 -8 0 -22 9
-32 20 -23 25 -35 26 -35 2 0 -17 21 -32 63 -46 17 -5 57 24 57 42 0 5 -11 19
-25 32 -33 31 -32 44 3 35 15 -4 32 -8 37 -10 37 -9 64 -29 65 -47 0 -4 -12
-8 -27 -10 -22 -2 -29 -9 -31 -30 -4 -34 29 -56 48 -33 14 17 20 18 38 6 22
-13 -5 -49 -32 -44 -13 3 -28 -2 -35 -11 -11 -13 -11 -20 3 -41 16 -25 46 -34
46 -15 0 6 -4 10 -10 10 -5 0 -10 7 -10 15 0 9 9 15 25 15 18 0 31 11 51 45
14 25 28 45 31 45 10 0 49 -24 70 -43 30 -27 18 -42 -14 -17 -14 11 -31 20
-38 20 -20 0 -47 -37 -43 -61 5 -33 26 -35 30 -3 4 33 17 39 43 20 19 -14 19
-15 2 -33 -9 -11 -17 -25 -17 -31 0 -22 19 -12 47 23 34 42 45 43 72 9 30 -38
26 -47 -13 -40 -28 5 -37 3 -45 -12 -14 -26 15 -54 47 -45 28 7 43 -24 19 -42
-19 -13 -23 -35 -7 -35 5 0 27 15 47 34 21 18 44 31 51 29 59 -21 -88 147
-198 226 -80 57 -106 73 -197 116 -79 38 -80 39 -105 24z"/>
<path d="M1045 1838 c-132 -15 -295 -86 -392 -171 -155 -135 -227 -264 -254
-452 -47 -336 131 -641 451 -772 105 -43 161 -54 282 -54 275 1 502 122 649
345 22 33 39 63 39 69 0 5 6 23 14 40 44 102 61 201 53 321 -14 209 -107 382
-282 522 -126 101 -240 140 -470 158 -11 1 -51 -2 -90 -6z m232 -78 c4 -20 11
-30 24 -30 10 0 26 -11 34 -24 10 -16 22 -22 35 -19 12 3 22 -3 29 -16 8 -14
21 -21 42 -21 22 0 32 -5 36 -20 6 -21 28 -27 38 -10 11 18 35 10 35 -11 0
-12 10 -32 23 -44 12 -13 28 -30 35 -39 10 -12 18 -14 32 -6 49 26 79 -2 44
-42 -18 -19 -21 -16 31 -33 10 -3 15 -14 13 -32 -3 -25 1 -28 30 -31 36 -4 40
-16 15 -44 -14 -16 -15 -21 -4 -28 8 -4 19 -6 25 -4 7 3 20 -1 29 -9 20 -14
14 -47 -9 -47 -18 0 -18 -9 3 -32 15 -17 15 -19 -3 -39 -19 -21 -18 -21 6 -41
l25 -20 -30 -24 -29 -23 27 -21 c29 -23 35 -40 14 -40 -22 0 -37 -22 -27 -40
7 -13 3 -23 -15 -40 -19 -17 -23 -29 -18 -52 5 -24 2 -30 -16 -35 -22 -6 -27
-18 -11 -28 21 -13 9 -34 -26 -45 -27 -9 -34 -16 -28 -29 4 -9 7 -27 8 -41 1
-26 -13 -30 -61 -15 -21 7 -23 4 -23 -24 0 -32 -4 -35 -53 -31 -27 2 -29 0
-22 -29 8 -38 -12 -50 -47 -27 -28 18 -38 13 -38 -21 0 -27 -26 -41 -43 -24
-6 6 -19 11 -29 11 -13 0 -18 -8 -18 -30 0 -40 -22 -48 -56 -21 -29 23 -44 16
-44 -21 0 -24 -26 -23 -57 2 -23 18 -28 19 -42 6 -11 -10 -21 -12 -31 -6 -23
15 -51 12 -71 -6 -27 -24 -50 -11 -43 24 8 39 -13 52 -37 24 -22 -29 -35 -28
-55 3 l-17 26 -27 -32 c-16 -19 -31 -29 -38 -25 -15 9 -15 59 0 74 21 21 -2
27 -32 8 -38 -22 -54 -13 -47 29 6 36 -9 50 -34 34 -19 -12 -69 -12 -69 0 0 5
4 21 10 35 8 22 7 26 -9 26 -20 0 -33 21 -35 55 -1 16 -9 21 -38 23 -37 3 -51
23 -28 37 6 3 10 15 10 26 0 16 -7 19 -40 19 -45 0 -51 14 -21 51 18 23 18 23
-12 38 -40 21 -45 38 -13 52 31 14 34 29 7 29 -50 0 -68 29 -31 52 26 17 25
22 -5 36 -14 6 -25 18 -25 27 0 15 48 45 75 45 24 0 18 13 -16 32 -38 22 -36
52 4 56 32 4 35 17 6 32 -31 17 -22 54 14 58 25 3 28 7 23 27 -8 30 14 48 48
39 31 -8 35 10 6 28 -23 15 -27 56 -5 64 8 3 24 -1 37 -10 37 -26 50 -21 42
19 -6 34 -5 35 26 35 27 0 31 3 25 18 -26 60 -13 82 34 57 28 -14 31 -14 50 6
17 18 23 20 35 10 22 -19 36 -4 36 37 0 60 13 68 44 28 28 -37 46 -46 46 -22
0 8 8 24 18 36 16 20 19 21 31 6 20 -24 35 -19 48 15 13 35 45 37 51 4 6 -33
20 -40 41 -21 12 11 21 14 26 7 10 -17 35 -13 42 7 18 50 51 56 60 12z"/>
<path d="M1065 1634 c-302 -42 -518 -338 -458 -628 30 -146 134 -292 252 -355
110 -58 175 -75 286 -75 228 2 401 108 500 309 98 200 50 456 -116 609 -46 44
-169 109 -232 125 -54 13 -185 22 -232 15z m-92 -148 c20 -15 22 -47 5 -64 -9
-9 -9 -15 0 -24 8 -8 20 -5 50 15 21 15 41 27 45 27 4 0 26 14 49 30 22 17 49
30 59 30 23 0 47 -25 55 -56 6 -25 113 -223 115 -214 1 3 3 20 3 39 3 50 38
73 113 75 l58 1 -2 -41 c-1 -23 -11 -56 -22 -75 -12 -19 -21 -43 -21 -53 0
-29 -94 -116 -125 -116 -35 0 -39 18 -15 65 21 41 26 80 12 89 -5 3 -17 -20
-27 -52 -24 -77 -26 -81 -58 -100 -24 -15 -29 -15 -37 -2 -5 8 -10 33 -10 55
-1 50 -33 147 -60 182 -11 14 -20 31 -20 38 0 7 -8 23 -18 35 -14 18 -25 22
-45 16 -15 -3 -27 -12 -27 -19 0 -6 -18 -32 -39 -57 l-39 -45 -23 22 c-21 21
-21 23 -6 55 19 39 3 53 -23 20 -17 -21 -17 -21 -39 -1 -26 24 -26 39 -3 65 9
10 25 31 35 47 19 30 33 33 60 13z m-129 -156 c24 -22 46 -40 50 -40 10 0 55
-52 62 -73 3 -10 0 -25 -6 -33 -9 -10 -10 -33 -6 -73 4 -33 3 -62 -1 -64 -16
-10 -114 45 -140 78 -57 71 -77 160 -48 215 21 40 37 38 89 -10z m250 -6 c9
-3 32 -33 53 -67 32 -53 37 -70 41 -139 3 -52 1 -83 -8 -92 -6 -9 -9 -20 -5
-26 7 -11 33 -7 103 16 52 17 110 17 138 1 27 -15 104 -85 104 -93 0 -14 -50
-52 -102 -76 -43 -21 -64 -25 -104 -21 -27 3 -54 10 -60 14 -6 5 -19 7 -28 3
-9 -3 -23 -1 -31 6 -21 18 -31 6 -51 -58 -18 -60 -54 -109 -73 -98 -14 9 -15
46 -1 46 17 0 80 150 80 191 0 48 -17 59 -33 22 -20 -45 -98 -123 -123 -123
-12 0 -28 10 -37 23 -14 21 -15 21 -35 4 -19 -17 -20 -17 -45 13 -16 19 -35
30 -51 30 -30 0 -53 32 -33 47 6 6 33 20 59 33 41 20 51 22 92 11 58 -14 113
-14 122 1 4 7 1 14 -7 16 -8 3 -29 21 -48 41 -32 34 -33 37 -28 97 5 62 27
113 70 162 23 25 20 24 41 16z"/>
</g>
</svg>
